<svg width="18" height="12" viewBox="0 0 18 12" fill="none" xmlns="http://www.w3.org/2000/svg">
<g clip-path="url(#clip0_1_68)">
<path d="M4.69741 0.0634377C5.0316 0.140315 5.43089 0.194345 5.78666 0.263759C5.994 0.304331 6.20595 0.344513 6.34771 0.406809C6.48342 0.46593 9.25323 1.17939 9.22959 1.24093C9.45768 1.28977 9.57505 1.31751 9.73601 1.36808C10.0588 1.46952 10.4064 1.56379 10.641 1.69329C10.8527 1.80973 11.0621 1.92583 11.357 2.01526C11.6711 2.11071 11.9665 2.21261 12.2839 2.30707C12.6172 2.40619 12.9912 2.49171 13.3019 2.59835C13.6193 2.70745 13.8674 2.83969 14.1736 2.95258C14.3294 3.01029 14.5666 3.04116 14.7277 3.09716C14.8377 3.13576 14.8621 3.20252 14.9579 3.24601C15.0281 3.27791 15.1498 3.2934 15.2533 3.31458C15.2829 3.32061 15.3477 3.31481 15.3675 3.32372C15.6602 3.45658 15.9593 3.58739 16.2412 3.7237L15.9011 3.65009C16.4258 3.75674 17.2384 3.97992 17.687 4.16999C18.1987 4.38704 18.1024 4.48413 18.0034 4.58732C17.7116 4.8921 16.8896 5.00334 16.4071 5.24191C15.9736 5.45582 15.309 5.59579 14.7188 5.7605C14.4505 5.83527 14.2491 5.9327 13.9993 6.01384C13.5417 6.16231 13.0716 6.30667 12.6054 6.45225C12.2461 6.56448 11.8688 6.67077 11.5286 6.78937C11.2252 6.89513 10.973 7.01779 10.6762 7.12577C10.5496 7.17181 10.3577 7.19626 10.213 7.2364C9.89609 7.3241 9.58989 7.41537 9.28012 7.50551C9.09786 7.55836 8.90577 7.60792 8.7375 7.66536C8.42677 7.77145 8.33802 7.99465 7.99817 8.10793C7.65832 8.22121 5.36094 8.97158 5.01485 9.10237C4.66926 9.23319 4.55066 9.38958 3.89779 9.408C3.19422 9.21691 2.40575 8.99531 1.95628 8.76562C1.69173 8.63048 1.59826 8.51797 1.53626 8.41676C1.38948 8.177 1.34533 7.96956 1.60882 7.84219C1.83945 7.7308 2.00154 7.5977 2.20978 7.47911C2.3315 7.41 2.45204 7.33935 2.63893 7.29209C2.81629 7.24686 4.95666 6.32359 5.1413 6.33147C5.2878 6.25544 5.37105 6.21631 5.52275 6.16266C5.82707 6.05505 6.10987 5.93918 6.49836 5.86098C6.8477 5.79043 7.19599 5.72062 7.46429 5.62232C7.75062 5.51762 8.05635 5.41918 8.3397 5.31335C8.63706 5.20227 8.89364 5.0776 9.21356 4.97404C9.54086 4.86822 9.93758 4.78554 10.2763 4.68345C10.4494 4.63153 10.542 4.55245 10.71 4.49876C10.7814 4.47616 10.8848 4.4644 10.9843 4.45123C10.9704 4.4446 10.9565 4.43901 10.9425 4.43343C10.7182 4.34401 10.4259 4.27685 10.1825 4.19359C9.73706 4.04107 9.30398 3.88437 8.86724 3.72895C8.53054 3.6092 8.21168 3.48343 7.85589 3.37004C7.53861 3.26891 7.17062 3.18482 6.84669 3.0859C6.70855 3.04372 6.6352 2.97973 6.51479 2.9315C6.25169 2.82586 5.97789 2.7238 5.70746 2.62054C5.54893 2.55979 5.40022 2.49576 5.2279 2.43967C4.90966 2.33609 4.24005 2.3065 3.9002 2.19322C3.56036 2.07994 1.30926 1.31415 0.916888 1.19878C0.524431 1.08359 0.055237 1.04405 0 0.82643C0.573249 0.591904 1.23806 0.329083 1.92715 0.179258C2.33254 0.0910763 2.67008 0.0599183 2.97371 0.0392514C3.693 -0.0096745 4.31532 -0.0243903 4.69741 0.0634377Z" fill="#0B4A72"/>
</g>
<defs>
<clipPath id="clip0_1_68">
<rect width="18" height="12" fill="white"/>
</clipPath>
</defs>
</svg>
