<svg width="118" height="41" viewBox="0 0 118 41" fill="none" xmlns="http://www.w3.org/2000/svg">
<path d="M117.985 25.1762C117.957 24.9785 117.682 24.8043 117.577 24.6262C117.51 24.5108 117.461 24.3835 117.366 24.2837C117.174 24.0802 117.004 23.906 116.8 23.8199C116.529 23.7044 116.121 23.859 115.822 23.8825C115.452 23.9119 115.326 23.8767 114.9 23.9843C114.53 24.0782 114.176 24.1565 113.828 24.227C113.224 24.3483 112.635 24.4383 112.002 24.5245C111.487 24.5949 110.973 24.6712 110.456 24.7417C109.981 24.8063 109.625 24.8024 109.15 24.8552C108.77 24.8963 108.27 24.9805 107.89 25.0176C107.259 25.0783 106.574 25.092 105.984 25.1018C105.476 25.1096 104.965 25.1077 104.457 25.094C103.746 25.0764 103.034 25.0607 102.326 25.0235C101.698 24.9902 100.385 24.9022 100.357 24.8983C99.3932 24.7652 98.4256 24.636 97.464 24.4892C96.8565 24.3972 96.9515 23.4598 96.7635 22.9549C96.5181 22.2934 96.16 21.6729 95.7168 21.123C94.8184 20.0055 93.5422 19.1541 92.1076 18.9036C91.9295 18.8723 91.7495 18.8547 91.5753 18.8136C91.3854 18.7686 91.2033 18.6727 91.0134 18.6512C90.6968 18.6179 90.3762 18.6296 90.0596 18.612C90.0141 18.6101 89.9686 18.5455 89.9271 18.5063C89.7628 18.3556 89.6085 18.1952 89.4344 18.0542C89.2484 17.9035 89.0327 17.7861 88.8586 17.6256C88.5954 17.383 87.7149 17.2401 87.4537 17.471C87.1569 17.7352 86.8858 18.0425 86.6582 18.3693C86.3199 18.8547 86.0349 19.3753 85.7124 19.8744C85.5086 20.1895 85.2751 20.485 85.0634 20.7942C84.8774 21.0662 84.7072 21.3481 84.5252 21.624C84.3293 21.9195 84.0879 22.1935 83.9355 22.5106C83.8188 22.7513 83.6605 22.9118 83.4527 23.0605C83.3775 23.1153 83.338 23.223 83.2944 23.311C83.2628 23.3756 82.7899 23.8121 82.6098 23.998C82.3625 24.2524 82.1963 24.6008 81.9192 24.8082C81.6185 25.0333 81.4226 25.3151 81.1931 25.5891C80.9398 25.8925 80.0533 26.783 79.7882 26.9669C79.6477 27.1763 78.8582 27.9788 78.7691 28.0668C78.3774 28.4582 76.9646 29.9711 76.6618 30.3292C76.1117 30.9771 74.2834 32.7306 74.0341 32.9537C73.8343 33.1338 73.4623 33.4822 73.2446 33.6387C72.8212 33.946 70.8365 35.7896 69.7621 35.6311C69.3564 35.5704 69.0339 35.2416 68.8637 34.8737C68.6956 34.5057 68.6599 34.0908 68.65 33.6857C68.6124 31.8578 69.8373 29.1824 70.5555 27.4934C71.2461 25.8749 72.1761 24.3268 73.1397 22.857C74.2597 21.1484 75.4449 19.4829 76.6282 17.8174C77.7185 16.2831 78.8562 14.9738 80.083 13.5431C80.5203 13.0323 80.9972 12.3199 81.5829 11.9637C82.2299 11.5723 83.2252 11.7054 83.9771 11.7171C84.2066 11.721 84.5489 11.723 84.7785 11.7308C85.663 11.7543 86.5494 11.768 87.4339 11.7974C87.7544 11.8071 88.077 11.858 88.3975 11.8522C89.1494 11.8404 89.9013 11.7915 90.6533 11.7856C91.4962 11.7797 92.3391 11.8032 93.182 11.813C94.2763 11.8248 93.8469 11.7934 94.9411 11.7974C95.5387 11.7993 96.1362 11.7621 96.7338 11.7797C98.0477 11.8208 98.111 11.9226 99.413 11.8345C100.865 11.7367 100.82 11.9833 102.282 11.723C102.777 11.6349 103.248 11.5527 103.416 11.0654C103.564 10.6388 103.39 10.0164 103.143 9.66215C102.793 9.16309 102.183 8.89105 101.576 8.80885C100.537 8.66794 100.877 8.77363 99.8186 8.69925C98.8174 8.6288 99.0647 8.58183 98.0615 8.52899C98.0061 8.52703 96.7378 8.51529 96.4627 8.51333C96.065 8.50941 93.7044 8.48789 92.9228 8.48397C92.159 8.48006 90.6988 8.60336 89.9706 8.6151C89.2879 8.62684 88.6132 8.56813 87.9325 8.50941C87.1786 8.44483 86.4149 8.47223 85.655 8.48006C85.2771 8.48397 84.8992 8.5329 84.4441 8.56813C84.5173 8.3959 84.5588 8.28435 84.6123 8.17866C84.6993 8.00839 84.7943 7.84008 84.8893 7.67373C84.9071 7.64242 85.7045 6.62472 85.9795 6.10217C86.1378 5.80077 86.8264 4.61672 87.0223 4.36034C87.331 3.95717 86.7829 3.47377 86.6523 3.41897C86.4406 3.3309 86.2407 3.00798 86.0884 2.91991C85.4572 2.55001 85.4572 2.55001 85.0693 2.30537C84.8616 2.17425 84.6103 2.10575 84.3728 2.03138C84.266 1.99811 84.1077 1.96679 84.0285 2.01963C83.7139 2.231 83.4053 2.45607 83.1282 2.71245C82.9779 2.85141 82.9007 3.06473 82.7839 3.24087C82.4001 3.82605 81.7847 4.20573 81.4246 4.832C81.0704 5.45045 80.5045 5.93386 80.1107 6.54448C79.7268 7.13748 79.2757 7.69134 78.8305 8.2452C78.6405 8.48202 78.4328 8.71295 78.0528 8.69534C77.6551 8.67577 77.2515 8.71491 76.8538 8.75014C76.2621 8.80298 75.6725 8.88518 75.0808 8.93411C74.2359 9.00456 73.4148 9.24137 72.6648 9.62888C72.3621 9.78545 72.0495 9.96942 71.8714 10.261C71.5805 10.7386 71.7309 11.3472 71.8892 11.8815C72.7479 12.132 73.6443 12.2495 74.5387 12.2299C75.433 12.2103 75.999 12.1457 75.3717 13.0988C75.3025 13.2065 73.3752 16.3692 73.2189 16.6216C72.9814 17.0052 71.1333 19.5084 70.7554 20.0485C70.3933 20.5652 69.5286 21.4909 69.5108 21.5105C69.2338 21.806 68.9548 22.1016 68.6738 22.3951C68.4363 22.6417 68.1949 22.8824 67.9575 23.1271C67.9258 23.1721 64.9993 25.912 64.5858 26.3015C64.3424 26.5305 63.9763 26.9063 63.7132 27.1137C63.4797 27.2977 63.3135 27.4777 63.08 27.6578L62.8999 27.8026C62.4745 28.1647 62.1579 28.4152 61.5129 29.0062C61.406 29.1041 60.6798 29.6932 60.2762 30.0102C59.5619 30.57 58.8297 31.1062 58.0976 31.6425C57.6761 31.9517 57.2349 32.2355 56.8075 32.5388C56.7323 32.5917 56.6195 32.6934 56.5443 32.7384C56.1387 32.9792 55.7192 33.2023 55.3116 33.4391C54.5636 33.8755 53.7445 34.1906 52.8956 34.3785C52.5731 34.449 52.2367 34.4861 51.9082 34.4822C49.6466 34.4588 50.6122 30.2842 51.2374 28.2997L51.4868 27.5697C52.2565 25.5148 53.4298 24.0156 54.9891 22.5047C55.1889 22.311 56.3979 21.0545 56.8253 20.6396C57.0331 20.438 59.732 17.4064 60.1673 16.9896C60.5433 16.6295 60.8718 16.2185 61.216 15.8271C61.4139 15.6 64.0614 12.406 64.5304 11.8933C65.0686 11.3061 65.6147 10.7249 66.1292 10.1162C66.7643 9.36663 67.3975 8.6151 67.9793 7.82638C68.5729 7.02397 69.2733 6.33115 69.8115 5.45828C70.1598 4.89267 70.6545 4.29575 71.0482 3.69492C71.818 2.52066 71.4321 1.57537 71.2342 1.28963C71.0186 0.976494 70.789 0.79644 70.516 0.520487C70.3478 0.350219 70.0391 0.228878 69.8452 0.176036C68.282 -0.248657 67.2234 0.205392 66.699 0.387404C66.5051 0.453946 66.329 0.590943 66.1608 0.716198C65.9095 0.904081 65.0152 1.5284 64.843 1.6791C63.4599 2.88272 62.1797 4.0061 60.9845 5.38978C60.3316 5.91429 59.7934 6.76759 59.2453 7.40169C58.6259 8.11799 56.6551 10.8442 56.2218 11.4431C54.8684 13.3122 53.7227 15.3162 52.6403 17.3458C52.0863 18.383 51.5501 19.4281 51.0099 20.4732C50.537 21.3833 50.0641 22.536 49.322 23.2621C48.8808 23.6946 48.2615 24.4207 47.654 25.0353C47.3394 25.3543 47.1316 25.5226 46.914 25.73C46.8744 25.7672 46.5083 26.1078 46.1818 26.415C45.885 26.6949 45.4814 27.0452 45.141 27.3623C44.6147 27.8535 44.1438 28.2841 44.0725 28.331C43.6867 28.6422 43.3998 28.8575 42.9071 29.245C42.5311 29.5405 42.0088 29.9222 41.6407 30.1746C41.1065 30.5406 40.6434 30.7794 40.2358 30.9242C39.5571 31.163 38.9972 31.2373 38.6667 31.1649C37.99 31.0279 38.0988 30.1785 38.1384 29.8419C38.1879 29.4133 38.2888 28.928 38.4036 28.4915C38.457 28.288 38.5144 28.0942 38.5698 27.924C38.6608 27.648 38.7755 27.3173 38.924 26.9434C38.9972 26.7614 39.0684 26.5755 39.1456 26.3818C39.3118 25.9649 39.5017 25.5148 39.7748 25.0157C39.9608 24.6732 40.2299 23.906 40.3882 23.6203C40.9521 22.6143 41.4666 21.8706 41.5062 21.8002C41.7278 21.4166 43.2731 19.3146 43.3226 19.2324C43.4849 18.9584 43.38 18.6512 43.1683 18.5298C43.0911 18.4848 42.7191 18.2206 42.6835 18.1873C42.6202 18.1267 42.5252 18.0621 42.452 18.0073C42.3966 17.9642 42.0839 17.8096 41.9791 17.7568C41.8524 17.6922 41.3261 17.4828 41.2667 17.4573C40.8908 17.2968 40.2101 17.835 40.0439 17.7294C39.9489 17.6687 39.4641 17.1227 38.9437 16.7978C38.7518 16.6784 38.455 16.514 38.1997 16.3711C37.7921 16.1441 37.3529 15.9993 37.1669 15.9327C36.876 15.829 36.6306 15.7409 36.415 15.6705C35.7323 15.4474 35.0774 15.4826 34.3393 15.6901C33.7952 15.8427 33.4053 16.1558 32.9107 16.4122C32.2221 16.7665 31.3574 17.3693 30.8172 17.7685C30.4868 18.0112 28.3319 19.6121 28.1895 19.7452C27.7443 20.1601 26.6065 20.9332 25.914 21.5594C25.8526 21.6162 25.7913 21.6827 25.7299 21.7571C25.2986 22.082 24.8672 22.4069 24.4398 22.7376C24.149 22.9627 23.8917 23.2288 23.6028 23.4539C23.3219 23.6731 23.0706 23.953 22.7837 24.1643C22.1069 24.6654 21.5905 25.2055 20.8841 25.7711C20.8406 25.8064 20.7832 25.8298 20.7337 25.8631C20.5457 25.9942 19.1033 27.1959 18.7906 27.4014C18.4167 27.65 16.1253 29.5797 15.6761 29.9437C15.225 30.3097 14.1248 31.1747 13.462 31.6542C13.1276 31.8969 12.7714 32.1083 12.4311 32.3431C11.8731 32.7267 11.3289 33.1299 10.763 33.4998C10.1318 33.9127 9.47884 34.2944 8.83972 34.6956C8.6834 34.7934 8.5528 34.9304 8.39451 35.0224C8.06802 35.2122 7.72966 35.3786 7.39922 35.5606C6.32874 36.1497 5.19098 36.5744 4.00376 36.866C3.87514 36.8973 3.74059 36.9032 3.61 36.9208C3.22613 36.9697 2.84226 37.0245 2.45641 37.0617C2.24667 37.0813 2.03297 37.0695 1.82125 37.0735C1.70055 37.0754 1.57787 37.0735 1.45717 37.0813C1.13859 37.1048 0.792321 36.9267 0.50343 37.1909C0.220475 37.4492 0.0740507 37.7878 0.0107321 38.1479C-0.0209272 38.3338 0.0206256 38.553 0.0938377 38.7311C0.248177 39.1069 0.570706 39.3065 0.956553 39.4161C1.09704 39.4572 1.25336 39.4846 1.36615 39.5668C1.6491 39.7723 1.93205 39.9621 2.29218 39.9915C2.42871 40.0032 4.01563 39.9504 4.6686 39.8956C5.04456 39.8643 5.42249 39.8408 5.79053 39.7743C6.21002 39.696 6.61961 39.5786 7.03118 39.467C7.1499 39.4357 7.25873 39.3633 7.3735 39.3143C8.13134 38.9875 8.63789 38.7742 9.39375 38.4415C9.50258 38.3945 9.84094 38.1831 9.94581 38.1264C10.2921 37.9405 10.6483 37.7761 10.9886 37.5803C11.6119 37.2242 12.2332 36.866 12.8387 36.4804C13.5332 36.0401 14.2159 35.5802 14.8866 35.1066C15.2962 34.8169 17.7835 32.6895 18.1198 32.4194C18.2702 32.2981 18.4622 32.2237 18.6046 32.0946C19.0676 31.6797 19.501 31.2315 19.9759 30.8303C20.6051 30.2999 21.266 29.8087 21.9051 29.29C22.291 28.9769 22.6531 28.6363 23.0389 28.3232C23.2031 28.1901 23.3713 28.061 23.5375 27.9318C23.5059 28.0707 23.4901 28.149 23.4881 28.151C23.3595 28.3721 23.3298 28.4348 23.0409 28.9828C22.752 29.5327 22.5423 30.0905 22.3879 30.431C22.1801 30.8851 22.0317 31.2824 21.8715 31.7932C21.7686 32.12 21.7389 32.5956 21.6756 32.9322C21.634 33.1494 21.6479 33.9636 22.1089 34.676C22.289 34.9559 22.5798 35.4588 22.9321 35.7035C23.122 35.8894 24.0797 36.5255 25.633 36.6037C26.003 36.6233 26.3156 36.6155 26.8776 36.5176C27.5504 36.3982 27.8472 36.2143 28.237 36.0518C28.3814 35.9912 28.7494 35.7857 29.1432 35.5841C29.5983 35.3492 29.8832 35.1046 30.0317 35.0028C30.1246 34.9382 30.4333 34.6584 30.7242 34.4059C31.0467 34.128 32.416 32.8617 32.4575 32.8089C32.4971 32.758 32.8216 32.392 33.1362 32.0887C33.5716 31.6679 34.2305 30.889 34.4422 30.705C34.5194 30.6385 34.8933 30.1766 34.8775 30.2451C34.8538 30.3527 34.8419 30.8831 34.8973 31.3489C34.9329 31.6405 34.9626 32.028 35.0793 32.3725C35.1941 32.7091 35.3682 33.4274 36.0746 33.9382C36.2309 34.0497 36.3714 34.1887 36.5455 34.3002C36.8364 34.4862 37.1768 34.6427 37.5745 34.7582C37.6061 34.768 37.99 34.8541 38.6351 34.8306C38.9418 34.8189 39.3058 34.7836 39.7194 34.7034C40.0815 34.6329 40.6593 34.4764 40.9106 34.3766C40.9779 34.3492 41.2351 34.2298 41.5081 34.1143C42.0088 33.9049 42.5529 33.6074 43.1426 33.2786C44.682 32.4214 47.4047 29.8948 47.4759 29.8478C47.4284 30.1101 47.4997 29.6501 47.4126 30.1825C47.3572 30.521 47.2682 31.3 47.2642 31.4096C47.2543 31.6151 47.2345 31.9302 47.2266 32.1337C47.1811 33.0946 47.468 33.6916 47.7688 34.4529C47.8835 34.7425 48.1289 35.085 48.3327 35.3316C48.8294 35.9344 49.3814 36.4883 50.1076 36.8269C50.3609 36.9462 51.7618 37.4786 52.1932 37.5079C52.951 37.5608 53.7168 37.6391 54.4865 37.4218C54.898 37.3044 55.3235 37.2418 55.7133 37.0441C56.299 36.7466 56.9064 36.4883 57.4723 36.1614C58.1134 35.7915 58.7308 35.3747 59.3422 34.9539C59.7894 34.6447 60.2188 34.3081 60.6383 33.9636C61.1409 33.5507 61.6276 33.1181 62.1203 32.6915C62.6229 32.257 63.1334 31.8323 63.6241 31.3841C64.0317 31.0103 64.4136 30.6091 64.8114 30.2216C64.8628 30.1727 66.6872 28.4211 66.9978 28.1451C66.984 28.4132 65.6187 32.0652 65.5989 32.7384C65.5929 32.987 65.492 33.2316 65.492 33.4782C65.492 33.8227 65.5751 35.4373 65.7829 35.8679C65.8403 35.9873 66.2123 36.9795 66.8732 37.4531C67.1482 37.6488 67.3777 37.9346 67.6726 38.0696C70.0094 39.1402 71.9683 38.2399 71.9664 38.2575C72.2216 38.0853 72.463 37.9091 72.7183 37.7526C73.2901 37.4003 73.9154 37.1126 74.4338 36.6938C74.9859 36.2476 75.6151 35.9031 76.092 35.3492C76.5688 34.7934 77.1605 34.3335 77.6947 33.8266C77.8213 33.7072 77.9183 33.5585 78.039 33.4332C78.1815 33.2864 78.3358 33.1494 78.5258 32.9674C78.5238 32.9635 79.9999 31.5955 80.1246 31.161C80.1443 31.0925 80.2235 31.0299 80.2769 30.9868C80.6707 30.662 81.6699 29.5581 82.0993 29.1961C82.1547 29.3898 82.0479 31.0612 82.5841 32.1591C82.7622 32.5232 82.8987 32.9283 83.1421 33.2767C83.2766 33.4665 83.3597 33.6994 83.5161 33.8657C83.7713 34.1397 84.0384 34.4196 84.3511 34.6212C84.8952 34.9715 85.4493 35.3453 86.0528 35.5586C86.6483 35.7681 87.3033 35.8503 87.9444 35.8855C88.2946 35.9051 88.8487 35.7465 89.2029 35.6819C89.8875 35.5567 90.491 35.3218 91.0648 34.9754C91.417 34.7601 91.8167 34.5488 92.0838 34.263C92.5845 33.7248 93.2869 33.4293 93.7104 32.805C93.9142 32.5036 94.2624 32.3001 94.5196 32.03C94.947 31.5838 95.3665 31.1277 95.7682 30.66C95.9245 30.476 96.6448 29.4544 96.7576 29.1178C96.902 28.6853 97.2503 28.3467 97.3017 27.8809C97.3076 27.8359 97.3888 27.7674 97.4402 27.7635C97.5767 27.7498 97.7172 27.7498 97.8538 27.7674C98.8312 27.8887 99.8067 28.0179 100.784 28.1373C101.093 28.1745 101.404 28.1882 101.714 28.2077C101.989 28.2234 102.264 28.2293 102.539 28.243C103.378 28.286 104.217 28.3408 105.056 28.3721C105.49 28.3878 105.923 28.3565 106.356 28.3565C106.942 28.3565 109.908 28.198 110.603 28.1236C111.044 28.0766 111.489 28.059 111.928 28.0003C112.581 27.9122 113.232 27.7987 113.883 27.695C114.162 27.65 114.441 27.6069 114.718 27.5619C116.135 27.3329 117.209 27.4386 117.868 25.961C117.991 25.6909 118.023 25.4286 117.985 25.1762ZM57.5178 14.6136C57.6682 14.3905 57.7949 14.1518 57.9492 13.9306C58.3707 13.3298 58.8 12.7329 59.2255 12.1359C59.5994 11.6114 59.9596 11.0752 60.3514 10.5644C61.0083 9.71108 61.6474 8.91845 62.2568 8.03971C62.8643 7.16488 63.6439 6.21177 64.475 5.40544C64.8153 5.07469 65.7354 3.99436 66.2578 4.10983C67.1601 4.30945 66.1905 5.26061 65.9174 5.58745C65.5474 6.0278 65.1418 6.43879 64.7619 6.87131C64.6907 6.95155 64.0515 7.72853 64.0812 7.7207C63.8497 8.02992 63.6696 8.29413 63.4639 8.53681C63.2264 8.81472 62.9613 9.06719 62.7159 9.33923C62.3301 9.76979 61.9501 10.2062 61.5722 10.6446C61.0795 11.2141 60.5908 11.7876 60.104 12.363C59.5935 12.9658 59.0889 13.5764 58.5685 14.1713C58.5685 14.1713 57.6722 15.1225 57.6465 15.1577C57.4822 15.3789 57.407 15.4239 57.2309 15.6372C56.9737 15.9484 56.7006 16.2478 56.4276 16.5473C56.3623 16.6177 56.2772 16.6706 56.2 16.7332C56.1743 16.7117 56.1486 16.6882 56.1229 16.6667C56.5898 15.9797 57.0568 15.2986 57.5178 14.6136ZM37.1055 20.9469C37.0501 21.2111 37.0857 21.3735 36.8958 21.7297C36.8325 21.8471 36.8582 21.8334 36.6405 22.2405C36.4545 22.585 36.2527 22.9627 36.0984 23.2523C36.0054 23.4265 35.8293 23.6966 35.7857 23.7808C35.7481 23.8512 35.5641 24.0078 35.1981 24.5186C34.9349 24.8865 34.5965 25.2447 34.2859 25.6733C34.1236 25.8964 33.8901 26.2193 33.7358 26.4307C33.2411 27.1059 32.7959 27.5697 32.6891 27.6911C32.3428 28.0864 29.2125 31.7403 26.7846 32.9244C25.8843 33.3647 25.6508 33.5233 25.6152 33.2806C25.5796 32.2179 26.2325 30.9594 26.3394 30.7305C26.3987 30.6052 27.1902 28.5894 28.8761 26.2291C29.3114 25.6204 29.6992 24.9883 30.2572 24.4325C31.0922 23.5987 31.7769 22.5458 32.7682 21.6632C32.8968 21.5496 33.2075 21.2933 33.3321 21.1856C33.6725 20.8881 34.6401 20.0525 34.9349 19.8802C35.105 19.7804 35.2693 19.7021 35.4256 19.6454C35.9757 19.4418 36.1676 19.4536 36.411 19.4966C36.5159 19.5162 36.872 19.6238 37.0541 20.0583C37.1451 20.2756 37.1847 20.5652 37.1055 20.9469ZM94.0507 27.601C93.9359 27.787 93.8508 27.9905 93.7222 28.1647C93.556 28.3897 93.3759 28.6089 93.1761 28.8007C92.63 29.3233 92.072 29.8341 91.512 30.3429C91.3735 30.4682 89.8202 31.8656 89.1336 32.1572C88.2372 32.5369 85.9756 33.351 85.6649 31.9399C85.3147 30.3508 85.7856 28.2743 86.2328 26.7477C86.496 25.8514 86.8423 24.9765 87.2677 24.1428C87.4695 23.7475 87.5269 23.4441 87.984 23.5811C88.2808 23.6692 88.6864 24.1526 88.8843 24.3816C89.2266 24.7789 89.6758 25.0137 90.0913 25.2897C90.4019 25.4971 90.7759 25.6146 91.1242 25.7672C91.6109 25.9786 92.0858 26.2252 92.5904 26.3818C93.1286 26.5481 93.6134 26.873 94.1951 26.9043C94.2664 26.9082 94.3356 26.9591 94.4444 27.0061C94.2921 27.2331 94.1655 27.4132 94.0507 27.601ZM95.2518 23.863C95.0381 24.0958 94.2367 23.8199 93.8231 23.6751C93.4037 23.5302 92.9743 23.4148 92.5568 23.2641C92.1175 23.1056 90.9362 22.5321 90.7898 22.4245C89.8539 21.7219 90.6473 21.5105 91.4526 21.5105C92.0858 21.5125 92.9664 21.534 93.5461 21.8256C94.1734 22.1427 94.7927 22.6535 95.1449 23.266C95.327 23.585 95.3408 23.7671 95.2518 23.863Z" fill="#0B4A72"/>
</svg>
