<svg width="24" height="20" viewBox="0 0 24 20" fill="none" xmlns="http://www.w3.org/2000/svg">
<g clip-path="url(#clip0_1_12)">
<path d="M1.76529 4.22482C1.16885 4.24455 0.693839 4.39211 0.121608 4.14057C0.0162868 3.60316 -0.083637 2.99148 0.109996 2.51226C0.223821 2.23029 0.421052 2.04888 0.61632 1.89498C1.07898 1.53046 1.54622 1.24994 2.06791 1.20002C2.52436 1.15644 2.97802 1.0566 3.43381 0.994506C3.69973 0.958468 3.96843 0.919994 4.23402 0.938987C4.48702 0.95652 8.45504 0.691588 8.58515 0.779249C8.88786 0.744915 9.04999 0.730548 9.30266 0.726652C9.80947 0.71886 10.3189 0.691588 10.8224 0.75636C11.2758 0.814314 11.7265 0.872754 12.1816 0.861553C12.6669 0.849865 13.1526 0.854248 13.6381 0.839881C14.1477 0.824784 14.6573 0.775353 15.1669 0.779249C15.688 0.783389 16.209 0.845969 16.7302 0.859605C16.996 0.86691 17.2625 0.806034 17.5285 0.808956C17.711 0.811392 17.8925 0.885417 18.0753 0.900027C18.2094 0.910741 18.3454 0.879085 18.4803 0.862284C18.5189 0.857414 18.5571 0.822836 18.5948 0.825758C19.2635 0.879085 19.9325 0.924864 20.6004 0.996454C21.3063 1.07194 22.0427 0.92389 22.7356 1.06464C23.1414 1.14718 23.5478 1.42112 23.781 1.92225C23.9465 2.27777 24.0621 2.90162 23.9638 3.33043C23.8511 3.81988 23.538 3.90194 23.2078 3.99057C22.2331 4.25258 21.2991 4.04707 20.3307 4.1452C19.4619 4.23286 18.5854 4.12986 17.7092 4.08943C17.3111 4.07093 16.9121 4.10916 16.5135 4.10648C15.7838 4.10137 15.0539 4.08578 14.3242 4.07336C13.7618 4.06387 13.1992 4.03927 12.6368 4.04585C12.1352 4.05169 11.6339 4.10039 11.1324 4.11184C10.9184 4.11671 10.704 4.06679 10.4898 4.05656C10.0211 4.03392 9.55239 4.02028 9.08351 4.00372C8.80811 3.99374 8.53271 3.97547 8.25747 3.97718C7.74918 3.98035 7.13633 4.22482 6.58705 4.22482C6.03778 4.22482 2.36205 4.20534 1.76529 4.22482Z" fill="#0B4A72"/>
<path d="M1.76529 19.9391C1.16885 19.9588 0.693839 20.1064 0.121608 19.8549C0.0162868 19.3174 -0.083637 18.7058 0.109996 18.2265C0.223821 17.9446 0.421052 17.7632 0.61632 17.6093C1.07898 17.2447 1.54622 16.9642 2.06791 16.9143C2.52436 16.8707 2.97802 16.7709 3.43381 16.7088C3.69973 16.6728 3.96843 16.6343 4.23402 16.6533C4.48702 16.6708 8.45504 16.4059 8.58515 16.4935C8.88786 16.4592 9.04999 16.4448 9.30266 16.4409C9.80947 16.4331 10.3189 16.4059 10.8224 16.4706C11.2758 16.5286 11.7265 16.587 12.1816 16.5758C12.6669 16.5642 13.1526 16.5685 13.6381 16.5542C14.1477 16.5391 14.6573 16.4896 15.1669 16.4935C15.688 16.4977 16.209 16.5603 16.7302 16.5739C16.996 16.5812 17.2625 16.5203 17.5285 16.5232C17.711 16.5257 17.8925 16.5997 18.0753 16.6143C18.2094 16.625 18.3454 16.5934 18.4803 16.5766C18.5189 16.5717 18.5571 16.5371 18.5948 16.54C19.2635 16.5934 19.9325 16.6392 20.6004 16.7107C21.3063 16.7862 22.0427 16.6382 22.7356 16.7789C23.1414 16.8615 23.5478 17.1354 23.781 17.6365C23.9465 17.9921 24.0621 18.6159 23.9638 19.0447C23.8511 19.5342 23.538 19.6162 23.2078 19.7049C22.2331 19.9669 21.2991 19.7614 20.3307 19.8595C19.4619 19.9471 18.5854 19.8441 17.7092 19.8037C17.3111 19.7852 16.9121 19.8234 16.5135 19.8208C15.7838 19.8157 15.0539 19.8001 14.3242 19.7877C13.7618 19.7782 13.1992 19.7536 12.6368 19.7601C12.1352 19.766 11.6339 19.8147 11.1324 19.8261C10.9184 19.831 10.704 19.7811 10.4898 19.7708C10.0211 19.7482 9.55239 19.7346 9.08351 19.718C8.80811 19.708 8.53271 19.6898 8.25747 19.6915C7.74918 19.6946 7.13633 19.9391 6.58705 19.9391C6.03778 19.9391 2.36205 19.9196 1.76529 19.9391Z" fill="#0B4A72"/>
</g>
<defs>
<clipPath id="clip0_1_12">
<rect width="24" height="20" fill="white"/>
</clipPath>
</defs>
</svg>
